HIERARCHY
ROOT Hips
{
	OFFSET 0.000000 97.167313 0.000000
	CHANNELS 6 Xposition Yposition Zposition Xrotation Yrotation Zrotation
	JOINT Spine
	{
		OFFSET 0.000000 13.784798 0.064400
		CHANNELS 3 Xrotation Yrotation Zrotation
		JOINT Spine1
		{
			OFFSET 0.000000 12.037903 0.404700
			CHANNELS 3 Xrotation Yrotation Zrotation
			JOINT Spine2
			{
				OFFSET 0.000000 17.795601 0.420200
				CHANNELS 3 Xrotation Yrotation Zrotation
				JOINT Neck
				{
					OFFSET 0.000000 39.131302 11.954600
					CHANNELS 3 Xrotation Yrotation Zrotation
					JOINT Head
					{
						OFFSET 0.000000 14.456192 15.627699
						CHANNELS 3 Xrotation Yrotation Zrotation
						JOINT HeadTop_End
						{
							OFFSET 0.000000 15.703506 7.603401
							CHANNELS 3 Xrotation Yrotation Zrotation
							End Site
							{
								OFFSET 0.000000 17.447403 0.000000
							}
						}
					}
				}
				JOINT LeftShoulder
				{
					OFFSET 17.399500 24.608795 1.168800
					CHANNELS 3 Xrotation Yrotation Zrotation
					JOINT LeftArm
					{
						OFFSET 18.980635 5.765305 1.818600
						CHANNELS 3 Xrotation Yrotation Zrotation
						JOINT LeftForeArm
						{
							OFFSET 49.290169 0.000000 0.000000
							CHANNELS 3 Xrotation Yrotation Zrotation
							JOINT LeftHand
							{
								OFFSET 31.562012 0.000000 0.000000
								CHANNELS 3 Xrotation Yrotation Zrotation
								JOINT LeftHandThumb1
								{
									OFFSET 6.133995 -4.388519 7.076070
									CHANNELS 3 Xrotation Yrotation Zrotation
									JOINT LeftHandThumb2
									{
										OFFSET 6.037666 -3.485840 3.485847
										CHANNELS 3 Xrotation Yrotation Zrotation
										JOINT LeftHandThumb3
										{
											OFFSET 6.496506 -3.750763 3.750761
											CHANNELS 3 Xrotation Yrotation Zrotation
											JOINT LeftHandThumb4
											{
												OFFSET 5.616882 -3.242905 3.242910
												CHANNELS 3 Xrotation Yrotation Zrotation
												End Site
												{
													OFFSET -1.254608 7.132141 0.375429
												}
											}
										}
									}
								}
								JOINT LeftHandPinky1
								{
									OFFSET 18.920792 -0.453171 -11.426712
									CHANNELS 3 Xrotation Yrotation Zrotation
									JOINT LeftHandPinky2
									{
										OFFSET 4.919586 0.000000 0.000000
										CHANNELS 3 Xrotation Yrotation Zrotation
										JOINT LeftHandPinky3
										{
											OFFSET 5.233047 0.000000 0.000000
											CHANNELS 3 Xrotation Yrotation Zrotation
											JOINT LeftHandPinky4
											{
												OFFSET 5.571716 0.000000 0.000000
												CHANNELS 3 Xrotation Yrotation Zrotation
												End Site
												{
													OFFSET -3.459808 4.342407 -0.466164
												}
											}
										}
									}
								}
								JOINT LeftHandRing1
								{
									OFFSET 22.726120 -0.094986 -6.500475
									CHANNELS 3 Xrotation Yrotation Zrotation
									JOINT LeftHandRing2
									{
										OFFSET 6.408615 0.000000 0.000000
										CHANNELS 3 Xrotation Yrotation Zrotation
										JOINT LeftHandRing3
										{
											OFFSET 6.150223 0.000000 0.000000
											CHANNELS 3 Xrotation Yrotation Zrotation
											JOINT LeftHandRing4
											{
												OFFSET 6.145386 0.000000 0.000000
												CHANNELS 3 Xrotation Yrotation Zrotation
												End Site
												{
													OFFSET -3.671402 4.923981 -0.202372
												}
											}
										}
									}
								}
								JOINT LeftHandMiddle1
								{
									OFFSET 23.373947 0.000000 0.000001
									CHANNELS 3 Xrotation Yrotation Zrotation
									JOINT LeftHandMiddle2
									{
										OFFSET 6.996567 0.000000 0.000000
										CHANNELS 3 Xrotation Yrotation Zrotation
										JOINT LeftHandMiddle3
										{
											OFFSET 7.015945 0.000000 0.000000
											CHANNELS 3 Xrotation Yrotation Zrotation
											JOINT LeftHandMiddle4
											{
												OFFSET 7.721573 0.000000 0.000000
												CHANNELS 3 Xrotation Yrotation Zrotation
												End Site
												{
													OFFSET -4.651108 6.158463 0.251582
												}
											}
										}
									}
								}
								JOINT LeftHandIndex1
								{
									OFFSET 21.310577 -0.490082 6.209344
									CHANNELS 3 Xrotation Yrotation Zrotation
									JOINT LeftHandIndex2
									{
										OFFSET 7.536453 0.000000 0.000000
										CHANNELS 3 Xrotation Yrotation Zrotation
										JOINT LeftHandIndex3
										{
											OFFSET 7.512344 0.000000 0.000000
											CHANNELS 3 Xrotation Yrotation Zrotation
											JOINT LeftHandIndex4
											{
												OFFSET 10.212402 0.000000 0.000001
												CHANNELS 3 Xrotation Yrotation Zrotation
												End Site
												{
													OFFSET -5.180801 8.690506 1.388433
												}
											}
										}
									}
								}
							}
						}
					}
				}
				JOINT RightShoulder
				{
					OFFSET -17.399500 24.608795 1.168800
					CHANNELS 3 Xrotation Yrotation Zrotation
					JOINT RightArm
					{
						OFFSET -18.980635 5.765305 1.818600
						CHANNELS 3 Xrotation Yrotation Zrotation
						JOINT RightForeArm
						{
							OFFSET -49.290169 0.000000 0.000000
							CHANNELS 3 Xrotation Yrotation Zrotation
							JOINT RightHand
							{
								OFFSET -31.562012 0.000000 0.000000
								CHANNELS 3 Xrotation Yrotation Zrotation
								JOINT RightHandThumb1
								{
									OFFSET -6.133995 -4.388519 7.076070
									CHANNELS 3 Xrotation Yrotation Zrotation
									JOINT RightHandThumb2
									{
										OFFSET -6.037666 -3.485840 3.485847
										CHANNELS 3 Xrotation Yrotation Zrotation
										JOINT RightHandThumb3
										{
											OFFSET -6.496506 -3.750763 3.750761
											CHANNELS 3 Xrotation Yrotation Zrotation
											JOINT RightHandThumb4
											{
												OFFSET -5.616882 -3.242905 3.242910
												CHANNELS 3 Xrotation Yrotation Zrotation
												End Site
												{
													OFFSET 1.254608 7.132141 0.375429
												}
											}
										}
									}
								}
								JOINT RightHandIndex1
								{
									OFFSET -21.310577 -0.490082 6.209344
									CHANNELS 3 Xrotation Yrotation Zrotation
									JOINT RightHandIndex2
									{
										OFFSET -7.536453 0.000000 0.000000
										CHANNELS 3 Xrotation Yrotation Zrotation
										JOINT RightHandIndex3
										{
											OFFSET -7.512344 0.000000 0.000000
											CHANNELS 3 Xrotation Yrotation Zrotation
											JOINT RightHandIndex4
											{
												OFFSET -10.212402 0.000000 0.000001
												CHANNELS 3 Xrotation Yrotation Zrotation
												End Site
												{
													OFFSET 5.180801 8.690506 1.388433
												}
											}
										}
									}
								}
								JOINT RightHandMiddle1
								{
									OFFSET -23.373947 0.000000 0.000001
									CHANNELS 3 Xrotation Yrotation Zrotation
									JOINT RightHandMiddle2
									{
										OFFSET -6.996567 0.000000 0.000000
										CHANNELS 3 Xrotation Yrotation Zrotation
										JOINT RightHandMiddle3
										{
											OFFSET -7.015945 0.000000 0.000000
											CHANNELS 3 Xrotation Yrotation Zrotation
											JOINT RightHandMiddle4
											{
												OFFSET -7.721573 0.000000 0.000000
												CHANNELS 3 Xrotation Yrotation Zrotation
												End Site
												{
													OFFSET 4.651108 6.158463 0.251582
												}
											}
										}
									}
								}
								JOINT RightHandRing1
								{
									OFFSET -22.726120 -0.094986 -6.500475
									CHANNELS 3 Xrotation Yrotation Zrotation
									JOINT RightHandRing2
									{
										OFFSET -6.408615 0.000000 0.000000
										CHANNELS 3 Xrotation Yrotation Zrotation
										JOINT RightHandRing3
										{
											OFFSET -6.150223 0.000000 0.000000
											CHANNELS 3 Xrotation Yrotation Zrotation
											JOINT RightHandRing4
											{
												OFFSET -6.145386 0.000000 0.000000
												CHANNELS 3 Xrotation Yrotation Zrotation
												End Site
												{
													OFFSET 3.671402 4.923981 -0.202372
												}
											}
										}
									}
								}
								JOINT RightHandPinky1
								{
									OFFSET -18.920792 -0.453171 -11.426712
									CHANNELS 3 Xrotation Yrotation Zrotation
									JOINT RightHandPinky2
									{
										OFFSET -4.919586 0.000000 0.000000
										CHANNELS 3 Xrotation Yrotation Zrotation
										JOINT RightHandPinky3
										{
											OFFSET -5.233047 0.000000 0.000000
											CHANNELS 3 Xrotation Yrotation Zrotation
											JOINT RightHandPinky4
											{
												OFFSET -5.571716 0.000000 0.000000
												CHANNELS 3 Xrotation Yrotation Zrotation
												End Site
												{
													OFFSET 3.459808 4.342407 -0.466164
												}
											}
										}
									}
								}
							}
						}
					}
				}
			}
		}
	}
	JOINT LeftUpLeg
	{
		OFFSET 19.899099 -7.885101 -3.429500
		CHANNELS 3 Xrotation Yrotation Zrotation
		JOINT LeftLeg
		{
			OFFSET 1.745560 -36.997807 10.304700
			CHANNELS 3 Xrotation Yrotation Zrotation
			JOINT LeftFoot
			{
				OFFSET -1.745558 -29.803308 -13.615400
				CHANNELS 3 Xrotation Yrotation Zrotation
				JOINT LeftToeBase
				{
					OFFSET 1.181900 -18.539904 15.226099
					CHANNELS 3 Xrotation Yrotation Zrotation
					JOINT LeftToe_End
					{
						OFFSET -0.863701 1.402801 16.534700
						CHANNELS 3 Xrotation Yrotation Zrotation
						End Site
						{
							OFFSET 0.000000 16.616566 0.000000
						}
					}
				}
			}
		}
	}
	JOINT RightUpLeg
	{
		OFFSET -19.899099 -7.885101 -3.429500
		CHANNELS 3 Xrotation Yrotation Zrotation
		JOINT RightLeg
		{
			OFFSET -1.745560 -36.997807 10.304700
			CHANNELS 3 Xrotation Yrotation Zrotation
			JOINT RightFoot
			{
				OFFSET 1.745558 -29.803308 -13.615400
				CHANNELS 3 Xrotation Yrotation Zrotation
				JOINT RightToeBase
				{
					OFFSET -1.181900 -18.539904 15.226099
					CHANNELS 3 Xrotation Yrotation Zrotation
					JOINT RightToe_End
					{
						OFFSET 0.863701 1.402801 16.534700
						CHANNELS 3 Xrotation Yrotation Zrotation
						End Site
						{
							OFFSET 0.000000 16.616566 0.000000
						}
					}
				}
			}
		}
	}
}
MOTION
Frames: 5
Frame Time: 0.033333
-0.303889 13.260910 -8.313614 88.760590 -3.940230 -1.268931 1.578311 2.120020 0.024030 1.831780 1.468795 0.098524 1.816209 1.488947 0.136348 -20.845288 -1.558444 3.909959 -29.576867 2.974446 -2.966084 -0.000001 0.000000 -0.000000 0.428647 14.150082 -3.123663 8.863468 -7.345950 -25.380870 -0.000012 -121.998325 -0.000011 42.003181 11.053964 76.606780 3.377809 -15.591631 21.038513 16.616510 30.885675 7.470332 4.709574 -14.976141 38.022570 0.000000 0.000000 0.000002 0.124774 0.548173 10.690318 0.022115 0.509068 -4.974084 0.022123 0.509067 -4.974081 -0.000000 -0.000000 -0.000004 0.173059 1.128680 7.185170 0.014157 0.407448 -3.979229 0.031831 0.610538 -5.968926 0.000000 0.000000 0.000005 0.145304 1.309860 6.418905 0.022113 0.509074 -4.974085 0.043311 0.711829 -6.963863 0.000000 -0.000000 0.000004 0.127613 1.425101 5.589588 0.022118 0.509077 -4.974085 0.022113 0.509076 -4.974071 -0.000000 0.000001 0.000002 2.595657 -8.013686 0.865920 5.220104 -1.167805 45.291995 -0.000004 134.202548 0.000034 31.820748 -18.235270 -66.669893 -8.354928 -1.612838 -27.543293 15.238603 0.853413 -4.423705 3.560837 -5.296579 -20.729585 0.000002 -0.000002 0.000002 0.222971 -0.760129 -8.414793 0.017646 -0.405471 4.983563 0.017646 -0.405455 4.983475 -0.000002 -0.000003 0.000001 0.278270 -0.553738 -9.805525 0.017641 -0.405462 4.983571 0.034572 -0.566912 6.976913 0.000000 0.000003 -0.000004 0.304304 -0.406480 -9.824015 0.011296 -0.324512 3.986835 0.025403 -0.486250 5.980127 -0.000001 -0.000000 -0.000003 0.142166 0.381750 -13.705966 0.017644 -0.405463 4.983578 0.017644 -0.405474 4.983580 -0.000000 -0.000001 0.000004 -3.852788 9.656869 5.691242 18.738882 4.011732 4.743833 -34.363372 1.036071 1.069432 -73.734494 7.797290 -9.361791 0.000001 -0.000000 0.000000 -10.583472 -7.318460 -4.632839 15.201441 -0.240479 -2.225787 -3.669497 -0.623455 5.106026 -93.664870 -16.392075 9.523465 -0.000001 0.000000 0.000000 
-0.267404 13.040390 -8.216179 88.683948 -4.320189 -1.242370 1.546327 2.088017 0.034492 1.800792 1.489150 0.148169 1.786002 1.508236 0.184352 -20.701465 -1.538807 4.104791 -29.401116 3.253412 -2.927271 0.000003 0.000000 -0.000000 0.436031 14.598326 -2.582055 9.543173 -7.368193 -26.222104 -0.000025 -122.132429 -0.000047 42.391911 11.022138 76.947115 3.377808 -15.591635 21.038513 16.616513 30.885668 7.470338 4.709578 -14.976143 38.022574 -0.000000 0.000000 0.000001 0.124774 0.548171 10.690317 0.022114 0.509065 -4.974075 0.022126 0.509066 -4.974081 -0.000000 -0.000001 -0.000006 0.173058 1.128678 7.185172 0.014157 0.407448 -3.979228 0.031831 0.610538 -5.968922 -0.000001 0.000000 0.000003 0.145304 1.309858 6.418905 0.022113 0.509073 -4.974082 0.043312 0.711830 -6.963864 0.000001 -0.000000 0.000004 0.127616 1.425098 5.589593 0.022116 0.509079 -4.974081 0.022113 0.509078 -4.974072 -0.000001 0.000001 0.000001 2.551176 -7.746000 0.219763 5.821211 -1.191387 45.889975 -0.000009 134.185951 0.000030 31.982969 -17.889514 -66.909086 -8.367771 -1.601162 -27.575215 15.238606 0.853418 -4.423706 3.560837 -5.296579 -20.729585 -0.000001 -0.000001 0.000001 0.222971 -0.760130 -8.414799 0.017645 -0.405464 4.983564 0.017647 -0.405456 4.983471 -0.000002 -0.000001 -0.000001 0.278270 -0.553742 -9.805529 0.017640 -0.405459 4.983576 0.034571 -0.566914 6.976917 0.000003 0.000003 -0.000006 0.304304 -0.406484 -9.824017 0.011294 -0.324515 3.986838 0.025403 -0.486253 5.980134 0.000000 -0.000001 -0.000003 0.142166 0.381748 -13.705966 0.017643 -0.405465 4.983578 0.017643 -0.405475 4.983572 0.000001 -0.000003 0.000004 -3.408744 9.757395 5.567163 18.614714 4.424272 4.696732 -34.310673 1.011739 1.172645 -74.031389 7.926579 -9.419625 0.000000 0.000000 0.000000 -10.587537 -7.251987 -4.645057 15.298306 -0.199600 -2.220625 -3.405634 -0.580125 5.052355 -93.352676 -17.515532 10.315460 -0.000000 0.000002 0.000000 
-0.186064 13.162308 -7.957184 88.666982 -4.656094 -1.180492 1.441630 1.954570 0.013163 1.699960 1.477706 0.165321 1.686862 1.494484 0.197204 -20.598749 -1.447124 4.260278 -29.063783 3.534669 -2.613087 -0.000004 0.000000 -0.000000 0.464813 15.175594 -2.363696 9.920016 -8.235494 -26.407586 -0.000005 -121.689819 -0.000031 42.565527 11.408724 77.090706 3.377806 -15.591633 21.038509 16.616513 30.885682 7.470338 4.709578 -14.976144 38.022567 0.000000 0.000001 0.000001 0.124773 0.548171 10.690317 0.022114 0.509066 -4.974083 0.022126 0.509067 -4.974077 0.000001 0.000000 -0.000006 0.173058 1.128679 7.185171 0.014156 0.407448 -3.979226 0.031832 0.610541 -5.968919 -0.000001 -0.000000 0.000002 0.145302 1.309859 6.418910 0.022115 0.509074 -4.974081 0.043311 0.711830 -6.963862 0.000001 0.000001 0.000002 0.127616 1.425102 5.589588 0.022116 0.509078 -4.974076 0.022114 0.509074 -4.974073 -0.000001 -0.000000 0.000001 2.525133 -7.419066 -0.192557 5.781194 -0.504166 45.897171 0.000014 133.270446 0.000005 31.778951 -17.761490 -67.276469 -8.381533 -1.588642 -27.609438 15.238603 0.853413 -4.423706 3.560839 -5.296576 -20.729585 0.000000 -0.000005 -0.000002 0.222971 -0.760128 -8.414800 0.017647 -0.405464 4.983566 0.017645 -0.405455 4.983473 -0.000001 -0.000001 -0.000002 0.278270 -0.553740 -9.805524 0.017641 -0.405464 4.983574 0.034570 -0.566916 6.976917 0.000002 0.000001 -0.000008 0.304304 -0.406482 -9.824018 0.011294 -0.324511 3.986831 0.025403 -0.486252 5.980133 -0.000001 -0.000002 -0.000003 0.142166 0.381748 -13.705964 0.017642 -0.405463 4.983575 0.017643 -0.405476 4.983577 0.000001 -0.000001 0.000004 -2.978424 9.759811 5.307014 17.840307 5.164094 4.629379 -33.889872 1.081871 1.168804 -73.751351 8.305180 -9.851829 0.000001 -0.000000 -0.000000 -10.489404 -7.285421 -4.725789 14.630870 -0.072870 -2.150661 -2.819682 -0.540889 5.147716 -92.939183 -17.980500 10.623552 -0.000000 -0.000000 0.000000 
-0.077451 13.492050 -7.629059 88.655186 -4.667922 -1.105391 1.275912 1.723102 -0.049253 1.538034 1.401362 0.128457 1.527218 1.415142 0.154262 -20.611638 -1.302543 4.314534 -28.660925 3.729982 -2.178855 0.000001 0.000000 0.000000 0.532162 15.441403 -2.282035 10.001136 -9.407005 -26.203633 -0.000014 -120.944045 -0.000021 42.602779 12.081506 76.944069 3.377804 -15.591633 21.038509 16.616512 30.885675 7.470338 4.709576 -14.976143 38.022570 0.000000 0.000001 -0.000002 0.124772 0.548169 10.690318 0.022113 0.509064 -4.974082 0.022124 0.509065 -4.974087 -0.000000 0.000000 -0.000002 0.173058 1.128680 7.185172 0.014156 0.407446 -3.979229 0.031831 0.610538 -5.968922 0.000001 -0.000001 -0.000000 0.145304 1.309861 6.418905 0.022113 0.509074 -4.974081 0.043311 0.711829 -6.963860 0.000001 -0.000000 0.000004 0.127617 1.425101 5.589586 0.022117 0.509079 -4.974085 0.022112 0.509074 -4.974072 -0.000001 0.000003 0.000004 2.531617 -7.866315 -0.415371 5.214658 1.500966 45.311400 -0.000015 131.434969 0.000040 31.093354 -17.806523 -67.917769 -8.396070 -1.575362 -27.645612 15.238603 0.853414 -4.423703 3.560841 -5.296576 -20.729581 -0.000002 0.000001 -0.000000 0.222972 -0.760133 -8.414799 0.017647 -0.405466 4.983566 0.017644 -0.405455 4.983474 -0.000001 -0.000005 -0.000000 0.278271 -0.553740 -9.805528 0.017640 -0.405459 4.983575 0.034572 -0.566913 6.976910 0.000002 -0.000000 -0.000004 0.304305 -0.406484 -9.824018 0.011296 -0.324512 3.986831 0.025404 -0.486252 5.980131 -0.000000 -0.000000 -0.000003 0.142168 0.381751 -13.705966 0.017642 -0.405464 4.983579 0.017645 -0.405469 4.983573 0.000000 -0.000000 0.000002 -2.745493 9.637258 4.986629 16.890129 5.873754 4.596698 -33.234522 1.204898 1.147628 -73.163047 8.780418 -10.523466 0.000000 0.000000 -0.000000 -10.243341 -7.340411 -4.856027 13.583314 -0.116165 -2.091221 -2.110017 -0.529872 5.377612 -92.455210 -18.273322 10.873248 -0.000001 0.000000 0.000000 
0.069024 13.986603 -7.320419 88.451312 -4.377286 -1.055711 1.045178 1.434535 -0.143031 1.303862 1.279739 0.052510 1.295488 1.290220 0.071540 -20.511470 -1.224032 4.446857 -27.742203 3.699480 -1.968834 -0.000001 0.000000 0.000000 0.618029 15.414405 -2.043409 9.791451 -11.185115 -25.907913 -0.000031 -119.688342 -0.000036 42.498185 13.017246 76.389799 3.377809 -15.591631 21.038514 16.616510 30.885675 7.470338 4.709578 -14.976139 38.022574 -0.000001 -0.000000 -0.000002 0.124772 0.548171 10.690318 0.022110 0.509064 -4.974080 0.022125 0.509066 -4.974082 -0.000001 0.000001 -0.000000 0.173059 1.128680 7.185171 0.014157 0.407447 -3.979229 0.031832 0.610540 -5.968921 -0.000000 -0.000001 0.000005 0.145305 1.309861 6.418905 0.022114 0.509075 -4.974088 0.043311 0.711829 -6.963862 0.000000 -0.000000 0.000004 0.127617 1.425102 5.589591 0.022115 0.509075 -4.974081 0.022113 0.509072 -4.974069 -0.000001 -0.000000 0.000001 2.544545 -8.739940 -0.648779 4.303258 4.426775 44.445557 -0.000016 128.692553 0.000029 29.915354 -17.989480 -68.710036 -8.411258 -1.561570 -27.683397 15.238606 0.853411 -4.423705 3.560841 -5.296580 -20.729583 0.000003 -0.000002 0.000003 0.222971 -0.760130 -8.414798 0.017649 -0.405462 4.983566 0.017646 -0.405457 4.983475 -0.000001 -0.000005 -0.000002 0.278272 -0.553739 -9.805531 0.017641 -0.405460 4.983580 0.034572 -0.566913 6.976917 -0.000000 0.000000 -0.000001 0.304307 -0.406478 -9.824016 0.011296 -0.324514 3.986833 0.025404 -0.486251 5.980131 -0.000000 0.000001 -0.000005 0.142169 0.381750 -13.705965 0.017641 -0.405465 4.983577 0.017643 -0.405475 4.983580 0.000000 -0.000002 0.000009 -2.500476 9.480058 4.662590 15.868018 6.170576 4.640277 -32.552122 1.306929 1.152489 -72.420059 9.050946 -11.082292 0.000000 0.000000 -0.000000 -9.798881 -7.449003 -5.029144 12.449333 -0.296810 -2.016034 -1.375484 -0.526854 5.571383 -92.234178 -18.287972 10.919354 -0.000000 -0.000001 -0.000000 
